<svg width="164" height="107" viewBox="0 0 164 107" fill="none" xmlns="http://www.w3.org/2000/svg">
<path d="M16.37 73.1193H18.5745C18.8601 73.125 19.1321 73.2425 19.3321 73.4465C19.5321 73.6506 19.644 73.9249 19.644 74.2106C19.644 74.813 19.1747 75.3019 18.5745 75.3019H16.37V77.5064C16.3643 77.7921 16.2468 78.0641 16.0427 78.264C15.8387 78.464 15.5643 78.576 15.2787 78.5759C15.1365 78.5782 14.9954 78.5523 14.8633 78.4997C14.7313 78.447 14.6111 78.3687 14.5095 78.2692C14.408 78.1697 14.3273 78.051 14.272 77.9201C14.2166 77.7892 14.1879 77.6486 14.1873 77.5064V75.3019H11.9828C11.6972 75.2962 11.4252 75.1787 11.2252 74.9747C11.0252 74.7706 10.9133 74.4963 10.9133 74.2106C10.9133 73.6082 11.3826 73.1193 11.9828 73.1193H14.1873V70.9148C14.193 70.6291 14.3105 70.3571 14.5146 70.1572C14.7186 69.9572 14.993 69.8452 15.2787 69.8453C15.8811 69.8453 16.37 70.3145 16.37 70.9148V73.1193ZM160.426 64.3886V62.1841C160.425 62.042 160.397 61.9014 160.341 61.7704C160.286 61.6395 160.205 61.5208 160.104 61.4214C160.002 61.3219 159.882 61.2435 159.75 61.1909C159.618 61.1382 159.477 61.1123 159.335 61.1146C159.049 61.1145 158.774 61.2265 158.57 61.4265C158.366 61.6265 158.249 61.8985 158.243 62.1841V64.3886H156.039C155.897 64.3892 155.756 64.4179 155.625 64.4733C155.494 64.5286 155.375 64.6093 155.276 64.7108C155.176 64.8123 155.098 64.9326 155.045 65.0646C154.993 65.1967 154.967 65.3378 154.969 65.4799C154.969 66.0649 155.449 66.5713 156.039 66.5713H158.243V68.7758C158.243 69.376 158.732 69.8453 159.335 69.8453C159.62 69.8453 159.895 69.7333 160.099 69.5334C160.303 69.3334 160.42 69.0614 160.426 68.7758V66.5713H162.63C163.231 66.5713 163.7 66.0824 163.7 65.4799C163.7 65.1942 163.588 64.9199 163.388 64.7159C163.188 64.5118 162.916 64.3943 162.63 64.3886H160.426ZM81.134 100.403H26.1854C25.899 100.403 25.6154 100.347 25.3508 100.237C25.0862 100.127 24.8459 99.9663 24.6437 99.7635C24.4415 99.5607 24.2814 99.3199 24.1725 99.055C24.0636 98.7901 24.0082 98.5063 24.0093 98.2199C24.0093 97.0151 24.9981 96.0372 26.1854 96.0372H36.0838C35.3199 94.7134 34.9193 93.2113 34.9226 91.6828V28.3637C34.9232 27.2171 35.1498 26.0819 35.5894 25.023C36.0291 23.964 36.6731 23.0021 37.4848 22.1923C38.2965 21.3824 39.2598 20.7405 40.3198 20.3033C41.3797 19.866 42.5154 19.642 43.662 19.644H50.2013V17.4504C50.2019 16.3038 50.4284 15.1686 50.8681 14.1096C51.3077 13.0507 51.9518 12.0888 52.7635 11.2789C53.5751 10.4691 54.5385 9.82719 55.5984 9.38993C56.6584 8.95268 57.7941 8.72865 58.9407 8.73066H111.307C112.454 8.72808 113.59 8.95171 114.65 9.38876C115.71 9.82581 116.674 10.4677 117.486 11.2777C118.297 12.0876 118.941 13.0497 119.381 14.109C119.82 15.1682 120.047 16.3037 120.047 17.4504V80.7695C120.047 82.3563 119.623 83.8427 118.883 85.1239H130.958C132.165 85.1239 133.143 86.093 133.143 87.3066C133.143 88.5114 132.171 89.4893 130.96 89.4893H104.768V91.6828C104.768 93.2696 104.344 94.756 103.605 96.0372H104.774C105.975 96.0372 106.951 97.0063 106.951 98.2199C106.951 99.4247 105.962 100.403 104.774 100.403H93.2914C94.2889 102.074 94.0728 104.266 92.6214 105.717C92.2168 106.124 91.7358 106.446 91.2062 106.667C90.6766 106.887 90.1086 107 89.5351 107C88.9615 107 88.3936 106.887 87.864 106.667C87.3343 106.446 86.8534 106.124 86.4488 105.717L81.134 100.403ZM89.1138 96.0372H96.0547C98.4556 96.0372 100.403 94.0947 100.403 91.661V28.2611C100.403 25.9039 98.5167 24.0093 96.19 24.0093H43.5005C41.1738 24.0093 39.288 25.9126 39.288 28.2611V91.661C39.288 94.0772 41.2524 96.0372 43.6336 96.0372H76.7665L75.6446 94.9132C75.1007 94.3721 74.7093 93.697 74.51 92.9562C74.3107 92.2153 74.3106 91.435 74.5096 90.6941L72.4492 88.6315C69.3544 90.9352 65.5027 91.9832 61.6673 91.5652C57.8319 91.1471 54.2965 89.2939 51.7707 86.3775C49.2449 83.461 47.9156 79.6972 48.0496 75.8414C48.1836 71.9856 49.7709 68.3231 52.4931 65.5891C55.2229 62.8495 58.8902 61.247 62.7551 61.1051C66.62 60.9631 70.3949 62.2921 73.3184 64.8241C76.2419 67.356 78.0965 70.9024 78.5079 74.748C78.9194 78.5935 77.8571 82.452 75.5355 85.5452L77.5981 87.6078C78.3388 87.4078 79.1192 87.4072 79.8601 87.6062C80.6011 87.8051 81.2763 88.1965 81.8172 88.7406L89.1138 96.0372ZM104.768 85.1239H111.336C112.49 85.1181 113.595 84.6558 114.409 83.8378C115.223 83.0198 115.681 81.9128 115.681 80.7586V17.4613C115.681 15.0429 113.734 13.096 111.336 13.096H58.9101C57.7563 13.1023 56.6519 13.565 55.8381 14.3829C55.0243 15.2008 54.5672 16.3075 54.5666 17.4613V19.644H96.0285C97.1753 19.6414 98.3112 19.865 99.3714 20.3021C100.432 20.7391 101.395 21.381 102.207 22.191C103.019 23.0009 103.663 23.9631 104.102 25.0223C104.542 26.0815 104.768 27.217 104.768 28.3637V85.1239ZM27.829 4.911H31.0811C31.9979 4.911 32.74 5.63782 32.74 6.54799C32.74 7.45162 31.9979 8.18499 31.0811 8.18499H27.829V11.4372C27.829 12.3539 27.1021 13.096 26.192 13.096C25.9756 13.0946 25.7616 13.0505 25.5622 12.9664C25.3628 12.8822 25.1819 12.7597 25.0299 12.6056C24.8779 12.4516 24.7577 12.2691 24.6762 12.0686C24.5947 11.8681 24.5535 11.6536 24.555 11.4372V8.18499H21.3028C21.0862 8.18701 20.8714 8.1462 20.6707 8.06492C20.4699 7.98363 20.2872 7.86348 20.1331 7.71135C19.9789 7.55923 19.8564 7.37813 19.7724 7.17849C19.6885 6.97884 19.6448 6.76457 19.644 6.54799C19.644 5.64437 20.3861 4.911 21.3028 4.911H24.555V1.65883C24.555 0.742106 25.2818 0 26.192 0C27.0956 0 27.829 0.742106 27.829 1.65883V4.911ZM2.18266 98.2199C2.18266 97.0151 3.17141 96.0372 4.35878 96.0372H17.4679C18.6683 96.0372 19.644 97.0063 19.644 98.2199C19.644 99.4247 18.6552 100.403 17.4679 100.403H4.35878C4.07238 100.403 3.78874 100.347 3.52416 100.237C3.25958 100.127 3.01928 99.9663 2.81707 99.7635C2.61486 99.5607 2.45471 99.3199 2.34584 99.055C2.23697 98.7901 2.18151 98.5063 2.18266 98.2199ZM71.0152 84.1112C72.0287 83.0976 72.8327 81.8944 73.3812 80.5702C73.9297 79.2459 74.212 77.8266 74.212 76.3933C74.212 74.9599 73.9297 73.5406 73.3812 72.2164C72.8327 70.8921 72.0287 69.6889 71.0152 68.6754C70.0016 67.6618 68.7984 66.8578 67.4742 66.3093C66.1499 65.7608 64.7306 65.4785 63.2973 65.4785C61.8639 65.4785 60.4446 65.7608 59.1204 66.3093C57.7961 66.8578 56.5929 67.6618 55.5794 68.6754C53.5325 70.7223 52.3825 73.4985 52.3825 76.3933C52.3825 79.288 53.5325 82.0642 55.5794 84.1112C57.6263 86.1581 60.4025 87.308 63.2973 87.308C66.192 87.308 68.9683 86.1581 71.0152 84.1112ZM48.0186 32.74C48.0186 32.1615 48.2483 31.6066 48.6571 31.1974C49.066 30.7881 49.6206 30.5579 50.1991 30.5573H74.2106C74.7895 30.5573 75.3446 30.7873 75.754 31.1966C76.1633 31.6059 76.3933 32.1611 76.3933 32.74C76.3933 33.3188 76.1633 33.874 75.754 34.2833C75.3446 34.6927 74.7895 34.9226 74.2106 34.9226H50.2013C49.9144 34.9235 49.6302 34.8676 49.365 34.7582C49.0998 34.6489 48.8588 34.4881 48.656 34.2853C48.4531 34.0824 48.2924 33.8415 48.183 33.5763C48.0736 33.3111 48.0178 33.0268 48.0186 32.74ZM48.0186 43.6533C48.0186 42.4485 48.9899 41.4706 50.186 41.4706H85.1392C86.3353 41.4706 87.3066 42.4397 87.3066 43.6533C87.3066 44.8581 86.3353 45.836 85.1392 45.836H50.186C49.9002 45.8357 49.6172 45.7789 49.3534 45.6689C49.0896 45.559 48.8501 45.3979 48.6487 45.1951C48.4473 44.9923 48.2879 44.7517 48.1798 44.4871C48.0717 44.2225 48.0169 43.9391 48.0186 43.6533ZM48.0186 54.5666C48.0186 53.3618 48.9921 52.3839 50.1969 52.3839H65.4843C66.6869 52.3839 67.6626 53.3531 67.6626 54.5666C67.6626 55.7714 66.6891 56.7493 65.4843 56.7493H50.1969C49.9103 56.7499 49.6265 56.6938 49.3616 56.5842C49.0968 56.4747 48.8562 56.3139 48.6538 56.111C48.4514 55.9082 48.291 55.6673 48.182 55.4022C48.073 55.1372 48.0175 54.8532 48.0186 54.5666ZM6.54799 41.4706C5.6881 41.4706 4.83662 41.3013 4.04218 40.9722C3.24775 40.6431 2.5259 40.1608 1.91786 39.5528C1.30983 38.9447 0.827504 38.2229 0.498436 37.4284C0.169369 36.634 0 35.7825 0 34.9226C0 34.0627 0.169369 33.2113 0.498436 32.4168C0.827504 31.6224 1.30983 30.9005 1.91786 30.2925C2.5259 29.6845 3.24775 29.2021 4.04218 28.8731C4.83662 28.544 5.6881 28.3746 6.54799 28.3746C8.28463 28.3746 9.95014 29.0645 11.1781 30.2925C12.4061 31.5205 13.096 33.186 13.096 34.9226C13.096 36.6593 12.4061 38.3248 11.1781 39.5528C9.95014 40.7808 8.28463 41.4706 6.54799 41.4706ZM6.54799 38.1966C6.97799 38.1967 7.40379 38.1121 7.80108 37.9476C8.19837 37.7831 8.55936 37.5419 8.86344 37.2379C9.16752 36.9339 9.40873 36.5729 9.5733 36.1757C9.73787 35.7784 9.82258 35.3526 9.82258 34.9226C9.82258 34.4926 9.73787 34.0669 9.5733 33.6696C9.40873 33.2723 9.16752 32.9114 8.86344 32.6074C8.55936 32.3033 8.19837 32.0622 7.80108 31.8977C7.40379 31.7332 6.97799 31.6486 6.54799 31.6486C5.67978 31.6488 4.84717 31.9938 4.23331 32.6078C3.61944 33.2217 3.27458 34.0544 3.27458 34.9226C3.27458 35.7909 3.61944 36.6235 4.23331 37.2375C4.84717 37.8515 5.67978 38.1965 6.54799 38.1966ZM141.873 28.3746C140.137 28.3746 138.471 27.6848 137.243 26.4568C136.015 25.2288 135.325 23.5633 135.325 21.8266C135.325 20.09 136.015 18.4245 137.243 17.1965C138.471 15.9685 140.137 15.2787 141.873 15.2787C143.61 15.2787 145.275 15.9685 146.503 17.1965C147.731 18.4245 148.421 20.09 148.421 21.8266C148.421 23.5633 147.731 25.2288 146.503 26.4568C145.275 27.6848 143.61 28.3746 141.873 28.3746ZM141.873 25.1006C142.303 25.1007 142.729 25.0161 143.126 24.8516C143.524 24.6871 143.885 24.4459 144.189 24.1419C144.493 23.8379 144.734 23.4769 144.899 23.0797C145.063 22.6824 145.148 22.2566 145.148 21.8266C145.148 21.3967 145.063 20.9709 144.899 20.5736C144.734 20.1763 144.493 19.8154 144.189 19.5114C143.885 19.2073 143.524 18.9662 143.126 18.8017C142.729 18.6372 142.303 18.5526 141.873 18.5526C141.005 18.5528 140.172 18.8978 139.559 19.5118C138.945 20.1258 138.6 20.9584 138.6 21.8266C138.6 22.6949 138.945 23.5275 139.559 24.1415C140.172 24.7555 141.005 25.1005 141.873 25.1006Z" fill="#8A96A3"/>
<path d="M68.9658 70.8735L57.6033 82.2361" stroke="#FF0000" stroke-width="2.40332" stroke-linecap="round"/>
<path d="M68.9658 82.2349L57.6033 70.8723" stroke="#FF0000" stroke-width="2.40332" stroke-linecap="round"/>
</svg>
